<svg xmlns="http://www.w3.org/2000/svg" xmlns:xlink="http://www.w3.org/1999/xlink" width="215" height="200"
preserveAspectRatio="xMidYMid meet" version="1.0" viewBox="92 100 200 200">
    <defs>
        <g />
        <clipPath id="3112dbd987">
            <path d="M 166.957031 153 L 207 153 L 207 160 L 166.957031 160 Z M 166.957031 153 "
                clip-rule="nonzero" />
        </clipPath>
        <clipPath id="6e1ef6cf39">
            <path d="M 184 136.296875 L 238 136.296875 L 238 160 L 184 160 Z M 184 136.296875 "
                clip-rule="nonzero" />
        </clipPath>
    </defs>
    <g fill="#ffffff" fill-opacity="1">
        <g transform="translate(84.791652, 197.831749)">
            <g>
                <path
                    d="M 0.53125 0 L 10.574219 0 L 13.351562 -7.148438 L 29.769531 -7.148438 L 32.546875 0 L 42.589844 0 L 26.167969 -41.347656 L 16.953125 -41.347656 Z M 15.773438 -14.53125 L 21.5625 -29.652344 L 27.410156 -14.53125 Z M 15.773438 -14.53125 " />
            </g>
        </g>
    </g>
    <g fill="#ffffff" fill-opacity="1">
        <g transform="translate(125.544412, 197.831749)">
            <g>
                <path
                    d="M 18.074219 0.828125 C 21.914062 0.828125 25.28125 -0.355469 27.941406 -2.421875 L 27.941406 11.8125 L 36.917969 11.8125 L 36.917969 -31.011719 L 30.242188 -31.011719 L 29.238281 -27.46875 C 26.464844 -30.242188 22.566406 -31.839844 18.074219 -31.839844 C 8.859375 -31.839844 2.304688 -25.046875 2.304688 -15.535156 C 2.304688 -5.90625 8.859375 0.828125 18.074219 0.828125 Z M 11.164062 -15.535156 C 11.164062 -20.554688 14.648438 -24.160156 19.730469 -24.160156 C 24.75 -24.160156 28.234375 -20.554688 28.234375 -15.535156 C 28.234375 -10.457031 24.75 -6.910156 19.730469 -6.910156 C 14.648438 -6.910156 11.164062 -10.457031 11.164062 -15.535156 Z M 11.164062 -15.535156 " />
            </g>
        </g>
    </g>
    <g clip-path="url(#3112dbd987)">
        <path fill="#2ea5e4"
            d="M 206.300781 156.710938 C 199.300781 155.152344 193.167969 157.054688 186.394531 158.523438 C 179.722656 159.964844 173.210938 159.132812 166.957031 156.425781 C 173.957031 157.984375 180.085938 156.078125 186.863281 154.609375 C 193.53125 153.167969 200.042969 154 206.300781 156.710938 "
            fill-opacity="1" fill-rule="nonzero" />
    </g>
    <path fill="#8fd8ff"
        d="M 176.644531 152.90625 C 182.9375 145.898438 192.996094 141.664062 202.152344 144.839844 C 206.601562 146.382812 210.765625 148.886719 215.460938 149.65625 C 220.542969 150.484375 225.207031 148.621094 229.472656 146.003906 L 229.679688 146.253906 C 226.652344 149.625 222.652344 152.171875 218.085938 152.714844 C 213.085938 153.304688 208.34375 151.457031 203.757812 149.730469 C 199.632812 148.171875 195.90625 147.203125 191.472656 148.019531 C 186.378906 148.960938 181.550781 151.089844 176.839844 153.167969 L 176.644531 152.90625 "
        fill-opacity="1" fill-rule="nonzero" />
    <g clip-path="url(#6e1ef6cf39)">
        <path fill="#8fd8ff"
            d="M 184.875 152.792969 C 189.128906 149.558594 196.101562 150.3125 200.886719 151.261719 C 204.347656 151.953125 207.582031 153.210938 210.949219 154.210938 C 216.132812 155.75 222.007812 155.484375 226.832031 152.902344 C 229.066406 151.707031 230.996094 149.980469 231.953125 147.578125 C 233.390625 143.960938 232.3125 140.167969 231.660156 136.515625 L 231.925781 136.328125 C 236.527344 139.246094 238.988281 145.144531 237.296875 150.40625 C 235.390625 156.359375 229.246094 159.578125 223.304688 159.832031 C 214.464844 160.214844 207.535156 154.851562 199.386719 152.59375 C 195.175781 151.425781 189.046875 150.421875 185.078125 153.050781 L 184.875 152.792969 "
            fill-opacity="1" fill-rule="nonzero" />
    </g>
    <g fill="#8fd8ff" fill-opacity="1">
        <g transform="translate(163.882715, 197.831749)">
            <g>
                <path
                    d="M 16.835938 0.828125 C 20.910156 0.828125 24.574219 -0.589844 27.054688 -3.484375 L 28 0 L 34.675781 0 L 34.675781 -31.011719 L 25.695312 -31.011719 L 25.695312 -14.828125 C 25.695312 -9.921875 23.039062 -6.910156 18.960938 -6.910156 C 15.179688 -6.910156 12.878906 -9.570312 12.878906 -14.117188 L 12.878906 -31.011719 L 3.898438 -31.011719 L 3.898438 -13.230469 C 3.898438 -4.609375 8.800781 0.828125 16.835938 0.828125 Z M 16.835938 0.828125 " />
            </g>
        </g>
    </g>
    <g fill="#8fd8ff" fill-opacity="1">
        <g transform="translate(200.678291, 197.831749)">
            <g>
                <path
                    d="M 14.828125 0.589844 C 19.433594 0.589844 23.214844 -0.886719 25.871094 -3.601562 L 26.875 0 L 33.550781 0 L 33.550781 -18.667969 C 33.550781 -26.875 28 -31.839844 18.726562 -31.839844 C 10.808594 -31.839844 5.613281 -28.058594 4.488281 -21.324219 L 13.113281 -21.324219 C 13.644531 -23.511719 15.890625 -24.988281 18.785156 -24.988281 C 22.328125 -24.988281 24.75 -22.976562 24.75 -19.90625 L 24.75 -18.488281 L 13.527344 -18.488281 C 7.089844 -18.488281 2.953125 -14.765625 2.953125 -9.039062 C 2.953125 -3.070312 7.5 0.589844 14.828125 0.589844 Z M 11.8125 -9.390625 C 11.8125 -11.519531 13.585938 -12.878906 16.304688 -12.878906 L 24.808594 -12.878906 C 24.632812 -8.683594 21.382812 -5.847656 16.894531 -5.847656 C 13.824219 -5.847656 11.8125 -7.265625 11.8125 -9.390625 Z M 11.8125 -9.390625 " />
            </g>
        </g>
    </g>
    <path stroke-linecap="butt" transform="matrix(0.75, 0, 0, 0.75, 157.746909, 201.079938)"
        fill="none" stroke-linejoin="miter"
        d="M 45.95725 0.278833 L 44.186417 0.278833 L 35.014541 16.752792 L 25.613499 0.278833 L 23.847874 0.278833 L 23.20204 22.997584 L 27.103082 22.997584 L 27.165582 10.22675 L 34.212458 23.195501 L 35.592666 23.195501 L 42.577041 9.997583 L 42.670791 22.997584 L 46.603083 22.997584 Z M 51.774959 11.669458 C 51.774959 18.362167 56.920792 23.351751 63.842668 23.351751 C 70.754127 23.351751 75.941627 18.330917 75.941627 11.669458 C 75.941627 4.91425 70.858293 -0.012834 63.842668 -0.012834 C 57.045792 -0.012834 51.774959 5.143416 51.774959 11.669458 Z M 56.082251 11.731958 C 56.082251 7.106958 59.394751 3.596541 63.873918 3.596541 C 68.405168 3.596541 71.660377 7.106958 71.660377 11.731958 C 71.660377 16.336125 68.248918 19.851751 63.873918 19.851751 C 59.498918 19.851751 56.082251 16.273625 56.082251 11.731958 Z M 81.436419 22.997584 L 85.426003 22.997584 L 85.426003 8.966333 L 99.613503 23.159043 L 100.676004 23.159043 L 100.676004 0.382999 L 96.691628 0.382999 L 96.691628 14.830917 L 82.691627 0.247583 L 81.436419 0.247583 Z M 107.655171 22.997584 L 111.644754 22.997584 L 111.644754 0.382999 L 107.655171 0.382999 Z M 115.75413 4.044458 L 123.321838 4.044458 L 123.321838 22.997584 L 127.342672 22.997584 L 127.342672 4.044458 L 134.774964 4.044458 L 134.774964 0.382999 L 115.75413 0.382999 Z M 137.415589 11.669458 C 137.415589 18.362167 142.561423 23.351751 149.483298 23.351751 C 156.394757 23.351751 161.582258 18.330917 161.582258 11.669458 C 161.582258 4.91425 156.498924 -0.012834 149.483298 -0.012834 C 142.686423 -0.012834 137.415589 5.143416 137.415589 11.669458 Z M 141.717673 11.731958 C 141.717673 7.106958 145.035381 3.596541 149.514548 3.596541 C 154.045799 3.596541 157.295799 7.106958 157.295799 11.731958 C 157.295799 16.336125 153.889549 19.851751 149.514548 19.851751 C 145.13434 19.851751 141.717673 16.273625 141.717673 11.731958 Z M 167.071841 22.997584 L 171.061425 22.997584 L 171.061425 16.429875 L 173.535383 16.429875 C 173.962467 16.429875 174.347883 16.429875 174.7333 16.398625 C 177.467675 17.950709 177.144759 23.127793 182.774967 23.127793 C 184.097884 23.127793 184.931217 22.935084 184.931217 22.935084 L 184.931217 19.393417 L 184.035384 19.393417 C 181.332259 19.393417 180.842675 17.044459 179.13955 15.565292 C 182.165592 14.080917 183.358301 10.773625 183.358301 8.424667 C 183.358301 3.690291 180.332259 0.382999 174.316633 0.382999 L 167.071841 0.382999 Z M 174.024967 4.044458 C 177.790592 4.044458 179.0458 5.9455 179.0458 8.424667 C 179.0458 10.898625 177.754134 12.898625 174.024967 12.898625 L 171.061425 12.898625 L 171.061425 4.044458 Z M 174.024967 4.044458 "
        stroke="#ffffff" stroke-width="1.206915" stroke-opacity="1" stroke-miterlimit="4" />
</svg>